<svg xmlns="http://www.w3.org/2000/svg" xmlns:xlink="http://www.w3.org/1999/xlink" version="1.1" width="30" height="40" viewBox="0 0 256 256" xml:space="preserve">

<defs>
</defs>
<g style="stroke: none; stroke-width: 0; stroke-dasharray: none; stroke-linecap: butt; stroke-linejoin: miter; stroke-miterlimit: 10; fill: none; fill-rule: nonzero; opacity: 1;" transform="translate(1.4065934065934016 1.4065934065934016) scale(2.81 2.81)" >
	<path d="M 45 0 c -0.896 0 -1.792 0.342 -2.475 1.025 L 2.734 40.816 c -1.367 1.366 -1.367 3.583 0 4.949 c 1.367 1.367 3.583 1.367 4.95 0 L 45 8.45 l 37.316 37.315 c 1.367 1.367 3.582 1.367 4.949 0 c 1.367 -1.366 1.367 -3.583 0 -4.949 L 47.475 1.025 C 46.791 0.342 45.896 0 45 0 z" style="stroke: none; stroke-width: 1; stroke-dasharray: none; stroke-linecap: butt; stroke-linejoin: miter; stroke-miterlimit: 10; fill: rgb(0,0,0); fill-rule: nonzero; opacity: 1;" transform=" matrix(1 0 0 1 0 0) " stroke-linecap="round" />
	<path d="M 84.791 60.206 H 5.209 c -1.933 0 -3.5 1.567 -3.5 3.5 c 0 1.933 1.567 3.5 3.5 3.5 h 79.582 c 1.933 0 3.5 -1.567 3.5 -3.5 C 88.291 61.773 86.724 60.206 84.791 60.206 z" style="stroke: none; stroke-width: 1; stroke-dasharray: none; stroke-linecap: butt; stroke-linejoin: miter; stroke-miterlimit: 10; fill: rgb(0,0,0); fill-rule: nonzero; opacity: 1;" transform=" matrix(1 0 0 1 0 0) " stroke-linecap="round" />
	<path d="M 84.791 83 H 5.209 c -1.933 0 -3.5 1.567 -3.5 3.5 s 1.567 3.5 3.5 3.5 h 79.582 c 1.933 0 3.5 -1.567 3.5 -3.5 S 86.724 83 84.791 83 z" style="stroke: none; stroke-width: 1; stroke-dasharray: none; stroke-linecap: butt; stroke-linejoin: miter; stroke-miterlimit: 10; fill: rgb(0,0,0); fill-rule: nonzero; opacity: 1;" transform=" matrix(1 0 0 1 0 0) " stroke-linecap="round" />
</g>
</svg>